<svg xmlns="http://www.w3.org/2000/svg" xmlns:xlink="http://www.w3.org/1999/xlink" width="500" zoomAndPan="magnify" viewBox="0 0 375 374.999991" height="500" preserveAspectRatio="xMidYMid meet" version="1.0"><path fill="#ffde59" d="M 258 289.59375 C 262.632812 272.652344 253.640625 237.824219 253.640625 237.824219 C 253.640625 237.824219 247.117188 266.199219 236.925781 276.683594 C 228.230469 285.628906 217.578125 291.835938 202.300781 293.464844 C 214.789062 287.398438 223.382812 274.746094 223.382812 260.125 C 223.382812 239.597656 206.453125 222.957031 185.570312 222.957031 C 164.691406 222.957031 147.761719 239.597656 147.761719 260.125 C 147.761719 265.730469 149.027344 271.046875 151.285156 275.8125 C 138.226562 265.40625 136.171875 248.726562 136.171875 248.726562 C 136.171875 248.726562 121.589844 309.273438 161.773438 337.757812 C 201.957031 366.238281 280.679688 341.757812 280.679688 341.757812 C 280.679688 341.757812 168.023438 421.023438 84.546875 334.753906 C 12.640625 260.4375 65.78125 162.601562 65.78125 162.601562 C 65.78125 162.601562 63.484375 171.675781 63.484375 182.210938 C 63.484375 192.746094 69.195312 200.765625 69.195312 200.765625 C 69.195312 200.765625 86.238281 164.847656 99.5 150.238281 C 112.046875 136.417969 127.78125 125.203125 141.371094 115.519531 C 151.832031 108.066406 161.023438 101.515625 166.511719 95.378906 C 196.742188 61.574219 178.207031 0 178.207031 0 C 178.207031 0 212.285156 30.042969 221.800781 68.847656 C 225.425781 83.636719 223.09375 100.464844 221.007812 115.515625 C 217.621094 139.945312 214.882812 159.6875 239.351562 158.40625 C 278.886719 156.335938 244.53125 95.378906 244.53125 95.378906 C 244.53125 95.378906 334.21875 142.515625 327.515625 224.960938 C 320.816406 307.402344 229.484375 326.144531 229.484375 326.144531 C 229.484375 326.144531 253.367188 306.535156 258 289.59375 Z M 258 289.59375 " fill-opacity="1" fill-rule="evenodd"/></svg>