<svg width="408" height="204" viewBox="0 0 408 204" fill="none" xmlns="http://www.w3.org/2000/svg">
<path d="M408 204C408 91.3339 316.666 0 204 0C91.3339 0 0 91.3339 0 204H408Z" fill="white" fill-opacity="0.15"/>
<path d="M204 0.5C316.223 0.5 407.23 91.34 407.499 203.5H0.500601C0.770343 91.34 91.7768 0.5 204 0.5Z" stroke="white" stroke-opacity="0.01"/>
<path d="M378 204C378 107.902 300.098 30 204 30C107.902 30 30 107.902 30 204H378Z" fill="white" fill-opacity="0.15"/>
<path d="M204 30.5C299.655 30.5 377.23 107.909 377.499 203.5H30.5007C30.7704 107.909 108.345 30.5 204 30.5Z" stroke="white" stroke-opacity="0.01"/>
<path d="M350 204C350 123.366 284.634 58 204 58C123.366 58 58 123.366 58 204H350Z" fill="white" fill-opacity="0.15"/>
<path d="M204 58.5C284.191 58.5 349.23 123.373 349.499 203.5H58.5008C58.7704 123.373 123.809 58.5 204 58.5Z" stroke="white" stroke-opacity="0.01"/>
</svg>
