<svg xmlns="http://www.w3.org/2000/svg" xmlns:xlink="http://www.w3.org/1999/xlink" width="500" zoomAndPan="magnify" viewBox="0 0 375 374.999991" height="500" preserveAspectRatio="xMidYMid meet" version="1.0"><path fill="#d9d9d9" d="M 61.191406 31.550781 C 65.785156 13.417969 82.210938 0 101.769531 0 C 116.445312 0 129.351562 7.550781 136.828125 18.976562 L 149.066406 18.976562 C 156.671875 11.171875 167.296875 6.324219 179.050781 6.324219 C 196.289062 6.324219 211.089844 16.742188 217.507812 31.625 L 227.753906 31.625 C 234.175781 27.617188 241.765625 25.300781 249.890625 25.300781 C 267.128906 25.300781 281.929688 35.71875 288.347656 50.601562 L 316.214844 50.601562 C 316.453125 50.601562 316.675781 50.664062 316.867188 50.777344 C 318.140625 50.660156 319.429688 50.601562 320.730469 50.601562 C 343.851562 50.601562 362.589844 69.339844 362.589844 92.460938 L 362.589844 220.253906 C 362.589844 221.019531 362.570312 221.78125 362.527344 222.539062 C 360.011719 309.617188 281.710938 379.5 185.492188 379.5 C 87.683594 379.5 8.390625 307.289062 8.390625 218.210938 C 8.390625 175.214844 26.867188 136.148438 56.980469 107.234375 C 56.90625 149.152344 57.613281 192.488281 60.878906 191.746094 C 69.617188 189.753906 62.789062 59.917969 61.191406 31.550781 Z M 61.191406 31.550781 " fill-opacity="1" fill-rule="evenodd"/></svg>