<svg xmlns="http://www.w3.org/2000/svg" xmlns:xlink="http://www.w3.org/1999/xlink" width="500" zoomAndPan="magnify" viewBox="0 0 375 374.999991" height="500" preserveAspectRatio="xMidYMid meet" version="1.0"><path fill="#38b6ff" d="M 309.207031 253.796875 C 309.207031 320.726562 254.746094 374.984375 187.5625 374.984375 C 120.378906 374.984375 65.917969 320.726562 65.917969 253.796875 C 65.917969 188.699219 180.984375 9.921875 187.292969 0.167969 C 187.4375 -0.0546875 187.6875 -0.0546875 187.832031 0.167969 C 194.144531 9.921875 309.207031 188.699219 309.207031 253.796875 Z M 167.285156 336.132812 C 105.554688 322.625 116.121094 254.246094 116.121094 254.246094 C 116.121094 254.246094 132.976562 295.523438 173.878906 308.894531 C 214.785156 322.265625 264.21875 302.65625 264.21875 302.65625 C 264.21875 302.65625 229.011719 349.636719 167.285156 336.132812 Z M 167.285156 336.132812 " fill-opacity="1" fill-rule="evenodd"/></svg>